# xmcd
#
# Track frame offsets:
#	150
#	15862
#	32774
#	45786
#	63223
#	75560
#	93972
#	105634
#	120221
#	133158
#	155095
#	171107
#	188169
#	203956
#	220493
#	233055
#	247567
#	262904
#	278166
#
# Disc length: 3983 seconds
#
# Revision: 1
# Processed by: cddbd v1.5.2PL0 Copyright (c) Steve Scherf et al.
# Submitted via: audiograbber 1.82.02
#
DISCID=e90f8d13
DTITLE=Various Artist  - Country Radio - December 2009
DYEAR=2009
DGENRE=Country
TTITLE0=Rodney Atkins - Chasin' Girls (Album Ver)
TTITLE1=Toby Keith (Ft. Dave Koz, Marcus Miller and Arthur Thompson) - Cryin' For
TTITLE1=Me (Wayman's Song)
TTITLE2=George Strait - Twang
TTITLE3=Jack Ingram and Patty Griffin - Seeing Stars
TTITLE4=Eric Church - Hell On The Heart
TTITLE5=Trent Tomlinson - Angels Like Her
TTITLE6=Justin Moore - Backwoods
TTITLE7=Fast Ryde - Make It Rain
TTITLE8=Joe Nichols - Gimmie That Girl
TTITLE9=Rascal Flatts - Why
TTITLE10=Telluride - Stay
TTITLE11=Bucky Covington - Gotta Be Somebody
TTITLE12=Big Kenny - Long After I'm Gone
TTITLE13=Jimmy Wayne (Ft. Daryll Hall and John Oates) - Sara Smile (Fiddle Solo)
TTITLE14=Jerrod Niemann - One More Drinkin' Song
TTITLE15=Emma Jacob - Julianna
TTITLE16=Aaron Watson - Road, The
TTITLE17=Gwen Sebastian - Hard Rain
TTITLE18=Doug Adkins - Johnny B. Goode (Johnny Be Good)
EXTD=
EXTT0=
EXTT1=
EXTT2=
EXTT3=
EXTT4=
EXTT5=
EXTT6=
EXTT7=
EXTT8=
EXTT9=
EXTT10=
EXTT11=
EXTT12=
EXTT13=
EXTT14=
EXTT15=
EXTT16=
EXTT17=
EXTT18=
PLAYORDER=
